<svg xmlns="http://www.w3.org/2000/svg" viewBox="0 0 32 32">
  <!-- Shield background -->
  <path d="M16 1.5 L28.5 6.5 L28.5 19 C28.5 25.8 23 30.8 16 32.5 C9 30.8 3.5 25.8 3.5 19 L3.5 6.5 Z" fill="#0a0a10"/>
  <!-- Gold border -->
  <path d="M16 1.5 L28.5 6.5 L28.5 19 C28.5 25.8 23 30.8 16 32.5 C9 30.8 3.5 25.8 3.5 19 L3.5 6.5 Z" fill="none" stroke="#F5A623" stroke-width="1.3"/>
  <!-- Inner subtle glow line -->
  <path d="M16 4 L26 8.5 L26 19 C26 24.5 21.5 29 16 30.5 C10.5 29 6 24.5 6 19 L6 8.5 Z" fill="none" stroke="#F5A62333" stroke-width="0.8"/>
  <!-- F W monogram in gold -->
  <text x="5.5" y="23" font-family="'Georgia', 'Times New Roman', serif" font-size="13.5" font-weight="900" fill="#F5A623" letter-spacing="-0.5">FW</text>
</svg>
